<?xml version="1.0" encoding="UTF-8"?>
<svg id="Layer_2" data-name="Layer 2" xmlns="http://www.w3.org/2000/svg" viewBox="0 0 397.01 287.17">
  <defs>
    <style>
      .cls-1 {
        fill: #231f20;
        stroke-width: 0px;
      }
    </style>
  </defs>
  <g id="Layer_2-2" data-name="Layer 2">
    <path class="cls-1" d="M3.2,17.36c-3.72,7.21-6.9,20.05,6.93,32.89,20.88,19.39,46.24,34.31,116.34,34.31s205.84,0,220.75-6.71c14.92-6.71,29.09-28.34,24.61-29.83-4.47-1.49-12.98,14.59-21.27,16.41-8.29,1.81-217.26,11.25-265.89.26C37.55,54.03,15.54,30.66,14.34,27.49c0,0-7.5-13.21-8.74-13.45s-2.41,3.32-2.41,3.32Z"/>
    <path class="cls-1" d="M141.65.34s-29.57-5.03-28.32,23.91,23.91,29.57,31.46,28.94,23.91-12.16,22.02-26.53S154.24,3.03,141.65.34Z"/>
    <path class="cls-1" d="M221.32,1.59c-4.38-1.8-9.34-1.31-13.34,1.23-6.07,3.86-15.01,11.39-11.58,20.8,5.03,13.84,11.33,23.66,27.69,25.67s18.25-12.92,17.62-24.64c-.48-8.95-10.88-19.15-20.38-23.06Z"/>
    <path class="cls-1" d="M279.45,7.26s-29.57,1.26-15.73,28.32,39.64,20.14,37.12-5.03-21.39-23.28-21.39-23.28Z"/>
    <path class="cls-1" d="M327.9,3.48s-19.51,4.08-13.84,26.58,35.87,30.99,36.49-5.35c0,0-9.44-20.6-22.65-21.23Z"/>
    <path class="cls-1" d="M122.78,96.61s47.19-1.89,46.56,0-14.47,15.1-13.21,37.12,5.66,32.09,5.66,35.24-12.32,3.71-21.49,8.74-26.96,27.13-30.73,25.24,14.47-22.65,16.99-35.24,10.7-45.3,0-60.41-3.78-10.7-3.78-10.7Z"/>
    <path class="cls-1" d="M79.27,284.62c-5.49-5.82-12.21-17.15-3.87-33.29,12.6-24.38,30.54-45.76,92.65-65.6,62.12-19.84,182.39-58.24,197.65-56.07,15.26,2.17,34.39,18.77,30.88,21.45-3.51,2.69-22.15-8.67-30.05-8.05-7.9.62-189.72,49.2-229.47,73.43-38.51,23.47-50.91,51.96-51,55.32,0,0-2.63,14.7-3.65,15.29s-3.14-2.48-3.14-2.48Z"/>
    <path class="cls-1" d="M202.64,95.64l30.44-2.38c.38-.03.6.39.34.65-2.62,2.6-10.92,11.87-10.31,24.47.62,12.81,9.15,25.61,11.58,29.01.32.45.12,1.07-.43,1.27l-32.31,11.99c-.34.13-.69-.17-.57-.5,1.84-4.93,11.2-30.58,10.06-38.43s-3.3-23.03-8.89-25.58c-.26-.12-.2-.47.09-.49Z"/>
    <path class="cls-1" d="M263.89,91.3l27.67-3.54c.59-.07,1.05.48.87,1.05-1.23,3.84-4.88,15.89-4.51,22.21.39,6.63,7.6,18.38,9.41,21.22.21.33.05.76-.31.88l-27.57,9.55c-.39.14-.74-.28-.54-.64,2.14-3.77,9.06-16.97,6.97-26.69-2.36-11-6.36-22.54-12-23.83-.11-.03-.1-.19.01-.2Z"/>
    <path class="cls-1" d="M322.48,87.51l22.63-2.89c.21-.03.35.21.23.38-1.56,2.13-7.86,11.48-5.9,20.88,1.77,8.51,5.8,14.06,7.38,15.98.3.37.15.92-.3,1.08-3.17,1.09-13.57,4.62-21.05,6.5-.2.05-.37-.16-.27-.35,1.25-2.41,6.68-13.47,5.1-20.98-1.64-7.79-5.54-18.59-7.89-20.29-.13-.09-.08-.29.08-.31Z"/>
  </g>
</svg>